<svg xmlns="http://www.w3.org/2000/svg" width="1200" height="760" viewBox="0 0 1200 760">
  <rect width="1200" height="760" fill="#f7f4ed"/>
  <circle cx="1050" cy="120" r="92" fill="#d9edf7"/>
  <circle cx="160" cy="660" r="120" fill="#f4dfd7"/>
  <text x="70" y="92" font-family="Arial, sans-serif" font-size="52" font-weight="900" fill="#171413">Community scan: daily eyewear users keep asking for normal looks, privacy, all-day battery, and readable displays</text>
  <text x="72" y="142" font-family="Arial, sans-serif" font-size="24" fill="#6f6a66">review/community friction · community threads accessed 2026-06-27</text>
  <line x1="70" y1="190" x2="1130" y2="190" stroke="#c7000b" stroke-width="5"/>
  <g font-family="Arial, sans-serif"><g transform="translate(70 250)"><rect width="310" height="132" rx="22" fill="#fffdfa" stroke="#d9d3c9"/><text x="24" y="38" font-size="24" font-weight="800" fill="#171413">User input</text><text x="24" y="72" font-size="17" fill="#4f4a45">intent</text><text x="24" y="96" font-size="17" fill="#4f4a45">screen/app state</text><text x="24" y="120" font-size="17" fill="#4f4a45">device context</text></g><g transform="translate(430 250)"><rect width="310" height="132" rx="22" fill="#fffdfa" stroke="#d9d3c9"/><text x="24" y="38" font-size="24" font-weight="800" fill="#171413">System stack</text><text x="24" y="72" font-size="17" fill="#4f4a45">AI model</text><text x="24" y="96" font-size="17" fill="#4f4a45">permissions</text><text x="24" y="120" font-size="17" fill="#4f4a45">connected tools</text></g><g transform="translate(790 250)"><rect width="310" height="132" rx="22" fill="#fffdfa" stroke="#d9d3c9"/><text x="24" y="38" font-size="24" font-weight="800" fill="#171413">Feedback</text><text x="24" y="72" font-size="17" fill="#4f4a45">visible result</text><text x="24" y="96" font-size="17" fill="#4f4a45">source trace</text><text x="24" y="120" font-size="17" fill="#4f4a45">undo path</text></g><g transform="translate(70 440)"><rect width="310" height="132" rx="22" fill="#fffdfa" stroke="#d9d3c9"/><text x="24" y="38" font-size="24" font-weight="800" fill="#171413">Risk</text><text x="24" y="72" font-size="17" fill="#4f4a45">scope drift</text><text x="24" y="96" font-size="17" fill="#4f4a45">privacy</text><text x="24" y="120" font-size="17" fill="#4f4a45">failure recovery</text></g><g transform="translate(430 440)"><rect width="310" height="132" rx="22" fill="#fffdfa" stroke="#d9d3c9"/><text x="24" y="38" font-size="24" font-weight="800" fill="#171413">Evidence</text><text x="24" y="72" font-size="17" fill="#4f4a45">review/community friction</text><text x="24" y="96" font-size="17" fill="#4f4a45">community</text><text x="24" y="120" font-size="17" fill="#4f4a45">source ledger</text></g><g transform="translate(790 440)"><rect width="310" height="132" rx="22" fill="#fffdfa" stroke="#d9d3c9"/><text x="24" y="38" font-size="24" font-weight="800" fill="#171413">Product test</text><text x="24" y="72" font-size="17" fill="#4f4a45">does it reduce work?</text><text x="24" y="96" font-size="17" fill="#4f4a45">can user stop it?</text><text x="24" y="120" font-size="17" fill="#4f4a45">is context clear?</text></g></g>
</svg>