<svg xmlns="http://www.w3.org/2000/svg" width="1200" height="760" viewBox="0 0 1200 760">
<rect width="1200" height="760" fill="#f7f8f6"/><rect x="54" y="54" width="1092" height="652" rx="24" fill="#ffffff" stroke="#cfd7dd"/>
<circle cx="190" cy="210" r="70" fill="#2d5e4f" opacity="0.15"/><rect x="128" y="176" width="124" height="68" rx="34" fill="none" stroke="#2d5e4f" stroke-width="14"/><circle cx="164" cy="210" r="15" fill="#2d5e4f"/><circle cx="216" cy="210" r="15" fill="#2d5e4f"/>
<text x="330" y="168" font-family="Inter,Arial,sans-serif" font-size="42" font-weight="900" fill="#16202a">Codex computer use</text>
<text x="330" y="220" font-family="Inter,Arial,sans-serif" font-size="25" fill="#4a5967">Windows host operated by an agent under user steering</text>
<path d="M150 300 H1050" stroke="#d7dde2" stroke-width="2"/>
<rect x="90" y="350" width="260" height="54" rx="12" fill="#fff" stroke="#d6dde4"/><text x="220" y="384" text-anchor="middle" font-size="24" font-weight="700" fill="#1d2730">see screen</text><rect x="410" y="350" width="260" height="54" rx="12" fill="#fff" stroke="#d6dde4"/><text x="540" y="384" text-anchor="middle" font-size="24" font-weight="700" fill="#1d2730">click / type</text><rect x="730" y="350" width="260" height="54" rx="12" fill="#fff" stroke="#d6dde4"/><text x="860" y="384" text-anchor="middle" font-size="24" font-weight="700" fill="#1d2730">remote steering</text><rect x="90" y="436" width="260" height="54" rx="12" fill="#fff" stroke="#d6dde4"/><text x="220" y="470" text-anchor="middle" font-size="24" font-weight="700" fill="#1d2730">local context</text><rect x="410" y="436" width="260" height="54" rx="12" fill="#fff" stroke="#d6dde4"/><text x="540" y="470" text-anchor="middle" font-size="24" font-weight="700" fill="#1d2730">audit need</text><rect x="730" y="436" width="260" height="54" rx="12" fill="#fff" stroke="#d6dde4"/><text x="860" y="470" text-anchor="middle" font-size="24" font-weight="700" fill="#1d2730">takeover</text>
<rect x="90" y="610" width="1020" height="54" rx="12" fill="#f0f4f7"/><text x="110" y="645" font-family="Inter,Arial,sans-serif" font-size="22" fill="#394957">Evidence visual: self-drawn from cited source · OpenAI release notes</text>
</svg>