<svg xmlns="http://www.w3.org/2000/svg" width="1200" height="760" viewBox="0 0 1200 760"><rect width="1200" height="760" fill="#f8f5ee"/><rect x="56" y="54" width="1088" height="650" rx="34" fill="#fffdfa" stroke="#d8d0c3"/><text x="92" y="130" font-family="Arial" font-size="44" font-weight="900" fill="#171413">Quark/Qwen AI glasses China scan: boundary matters more than raw capabil</text><text x="94" y="178" font-family="Arial" font-size="24" fill="#6c635b">weak/unverified · china</text><line x1="94" y1="215" x2="1106" y2="215" stroke="#c7000b" stroke-width="6"/><g font-family="Arial" fill="#171413"><g transform="translate(100 270)"><rect width="295" height="126" rx="18" fill="#f2ede3"/><text x="22" y="44" font-size="24" font-weight="800">User touchpoint</text><text x="22" y="80" font-size="18" fill="#61584f">source-backed only</text><text x="22" y="106" font-size="18" fill="#61584f">unknown stays unknown</text></g><g transform="translate(450 270)"><rect width="295" height="126" rx="18" fill="#f2ede3"/><text x="22" y="44" font-size="24" font-weight="800">Permission boundary</text><text x="22" y="80" font-size="18" fill="#61584f">source-backed only</text><text x="22" y="106" font-size="18" fill="#61584f">unknown stays unknown</text></g><g transform="translate(800 270)"><rect width="295" height="126" rx="18" fill="#f2ede3"/><text x="22" y="44" font-size="24" font-weight="800">Context read</text><text x="22" y="80" font-size="18" fill="#61584f">source-backed only</text><text x="22" y="106" font-size="18" fill="#61584f">unknown stays unknown</text></g><g transform="translate(100 460)"><rect width="295" height="126" rx="18" fill="#f2ede3"/><text x="22" y="44" font-size="24" font-weight="800">Action taken</text><text x="22" y="80" font-size="18" fill="#61584f">source-backed only</text><text x="22" y="106" font-size="18" fill="#61584f">unknown stays unknown</text></g><g transform="translate(450 460)"><rect width="295" height="126" rx="18" fill="#f2ede3"/><text x="22" y="44" font-size="24" font-weight="800">Feedback surface</text><text x="22" y="80" font-size="18" fill="#61584f">source-backed only</text><text x="22" y="106" font-size="18" fill="#61584f">unknown stays unknown</text></g><g transform="translate(800 460)"><rect width="295" height="126" rx="18" fill="#f2ede3"/><text x="22" y="44" font-size="24" font-weight="800">Recovery path</text><text x="22" y="80" font-size="18" fill="#61584f">source-backed only</text><text x="22" y="106" font-size="18" fill="#61584f">unknown stays unknown</text></g></g></svg>